Coordinates
version=1
nRows=18
nColumns=34
inDegrees=no

Units are S.I. units (second, meters, Newtons, ...)
If the header above contains a line with 'inDegrees', this indicates whether rotational values are in degrees (yes) or radians (no).

endheader
time	pelvis_tilt	pelvis_list	pelvis_rotation	pelvis_tx	pelvis_ty	pelvis_tz	hip_flexion_r	hip_adduction_r	hip_rotation_r	knee_angle_r	ankle_angle_r	subtalar_angle_r	mtp_angle_r	hip_flexion_l	hip_adduction_l	hip_rotation_l	knee_angle_l	ankle_angle_l	subtalar_angle_l	mtp_angle_l	lumbar_extension	lumbar_bending	lumbar_rotation	arm_flex_r	arm_add_r	arm_rot_r	elbow_flex_r	pro_sup_r	arm_flex_l	arm_add_l	arm_rot_l	elbow_flex_l	pro_sup_l
2.22	-0.0179294	-0.0339046	-0.054498	-0.430065	0.958248	-0.57485	0.506566	-0.113001	-0.204604	0.390463	-0.418039	-0.0761413	-0.0912645	0.501836	-0.216004	-0.289915	0.382536	-0.372137	0.117643	-0.0912444	-0.457103	0.00177015	0.0372591	-0.13623	-0.518445	-0.323789	1.81989	1.99873	-0.141732	-0.447238	-0.0723576	1.78318	1.56382
2.23	-0.0227307	-0.0403536	-0.0564939	-0.421304	0.930045	-0.574349	0.561733	-0.0967601	-0.173011	0.506248	-0.268375	-0.136648	-0.0912645	0.573541	-0.223263	-0.231133	0.525778	-0.196934	0.0802804	-0.0912443	-0.451984	0.00661902	0.0383425	-0.124717	-0.515671	-0.332464	1.8489	2.01052	-0.129114	-0.446434	-0.0748332	1.79029	1.56535
2.24	-0.0301934	-0.0465929	-0.0575527	-0.413779	0.901321	-0.574062	0.623582	-0.0829632	-0.145239	0.623526	-0.138424	-0.191916	-0.0912645	0.650329	-0.228132	-0.176849	0.665414	-0.0492638	0.0440582	-0.0912443	-0.448606	0.0121942	0.0383509	-0.108085	-0.512663	-0.336393	1.87002	2.02113	-0.113451	-0.444925	-0.0753093	1.79007	1.56159
2.25	-0.0402008	-0.0526127	-0.0576693	-0.407674	0.873014	-0.574015	0.691703	-0.0716826	-0.121372	0.741773	-0.0284288	-0.241744	-0.0912645	0.73172	-0.230617	-0.127146	0.800927	0.0710706	0.00917387	-0.0912443	-0.44704	0.0184909	0.037276	-0.086429	-0.509468	-0.335542	1.88319	2.03055	-0.09486	-0.442702	-0.0738147	1.78253	1.55258
2.26	-0.052356	-0.0583662	-0.0568338	-0.402368	0.84644	-0.57418	0.764894	-0.0631218	-0.101592	0.859569	0.0616049	-0.285569	-0.0912645	0.816343	-0.230735	-0.0822271	0.930958	0.165239	-0.0237828	-0.0912442	-0.44741	0.0254721	0.0350993	-0.0600663	-0.50624	-0.32982	1.88833	2.03878	-0.0737121	-0.43975	-0.0704353	1.76771	1.53846
2.27	-0.066114	-0.0637539	-0.0550492	-0.397474	0.822548	-0.574526	0.841044	-0.0576003	-0.086081	0.974645	0.132835	-0.32247	-0.0912645	0.901881	-0.228548	-0.0423691	1.05346	0.236107	-0.0537635	-0.0912442	-0.449884	0.0330251	0.0318105	-0.0296462	-0.503272	-0.319115	1.88536	2.0459	-0.0507085	-0.436081	-0.0653267	1.74575	1.51962
2.28	-0.0808274	-0.0686464	-0.0523715	-0.393203	0.800482	-0.575007	0.917441	-0.0554273	-0.0748724	1.0843	0.188041	-0.351379	-0.0912645	0.985523	-0.224231	-0.0077971	1.16622	0.288187	-0.0794107	-0.0912442	-0.454533	0.0409465	0.0274731	0.0037966	-0.500991	-0.303381	1.8743	2.05214	-0.0268382	-0.431766	-0.058713	1.71695	1.49686
2.29	-0.0959479	-0.0729224	-0.048964	-0.389801	0.779272	-0.575628	0.991344	-0.0566826	-0.0677182	1.18603	0.23117	-0.371493	-0.0912645	1.06468	-0.218169	0.0214967	1.26755	0.326766	-0.0993753	-0.0912442	-0.461259	0.0489855	0.0223364	0.0388668	-0.499903	-0.282768	1.85536	2.05788	-0.00323649	-0.426928	-0.0508883	1.68176	1.47145
2.3	-0.111045	-0.0765623	-0.0451625	-0.38721	0.758656	-0.576372	1.06058	-0.0610227	-0.0640582	1.27799	0.266303	-0.382673	-0.0912646	1.13759	-0.211015	0.0458714	1.35673	0.35677	-0.112683	-0.0912441	-0.469741	0.056886	0.0169268	0.0739149	-0.500539	-0.257728	1.82908	2.06357	0.0189759	-0.421712	-0.0422347	1.64088	1.4451
2.31	-0.125914	-0.0796928	-0.041488	-0.385222	0.738767	-0.577159	1.12393	-0.0676306	-0.063115	1.35935	0.296708	-0.385639	-0.0912646	1.20364	-0.203658	0.0660271	1.43412	0.381931	-0.119038	-0.0912441	-0.479532	0.0644165	0.0120385	0.107216	-0.50338	-0.229019	1.79631	2.06968	0.0387978	-0.416225	-0.0332517	1.59518	1.41973
2.32	-0.140568	-0.082542	-0.0385893	-0.383557	0.719992	-0.577908	1.18115	-0.0753366	-0.0640465	1.43021	0.324396	-0.381897	-0.0912646	1.2632	-0.197091	0.0828776	1.50093	0.404532	-0.118942	-0.0912441	-0.490165	0.0713845	0.00859001	0.13719	-0.508778	-0.197627	1.75819	2.07648	0.0553722	-0.41052	-0.0245657	1.54574	1.39723
2.33	-0.15513	-0.0853393	-0.0371242	-0.381926	0.702773	-0.57857	1.23279	-0.082863	-0.0660722	1.49139	0.350201	-0.373436	-0.0912646	1.31731	-0.19224	0.0973598	1.55883	0.425674	-0.113548	-0.091244	-0.501191	0.0776279	0.00738789	0.162622	-0.516847	-0.164629	1.71597	2.08391	0.0679711	-0.404611	-0.0168805	1.49376	1.37915
2.34	-0.169839	-0.0882515	-0.0376059	-0.380195	0.687232	-0.579079	1.27981	-0.0891104	-0.0685328	1.54408	0.374202	-0.362309	-0.0912646	1.3672	-0.189793	0.110245	1.60951	0.445728	-0.104332	-0.091244	-0.51227	0.0829638	0.00888475	0.182806	-0.527353	-0.131066	1.67083	2.09171	0.0759933	-0.398536	-0.0108496	1.44046	1.36627
2.35	-0.184936	-0.0912768	-0.0402736	-0.378421	0.673137	-0.579377	1.3233	-0.0933912	-0.0709062	1.58961	0.396179	-0.350258	-0.0912646	1.41397	-0.190074	0.122013	1.65445	0.464724	-0.0927722	-0.091244	-0.523153	0.0871932	0.0130338	0.197574	-0.539706	-0.0978417	1.62371	2.09947	0.0790108	-0.392398	-0.0069074	1.38684	1.35854
2.36	-0.200614	-0.0942185	-0.0450187	-0.376731	0.660196	-0.579468	1.3642	-0.0955661	-0.0727918	1.6292	0.415935	-0.338469	-0.0912646	1.45843	-0.192977	0.132814	1.69473	0.482546	-0.0801815	-0.0912439	-0.533674	0.0901001	0.0192849	0.207188	-0.553054	-0.0656552	1.57531	2.10669	0.0768491	-0.386381	-0.00511949	1.33361	1.35511
2.37	-0.216987	-0.0967019	-0.0514142	-0.37518	0.648214	-0.579388	1.40325	-0.0960469	-0.0738895	1.66396	0.433444	-0.327493	-0.0912646	1.501	-0.197971	0.14251	1.73103	0.499015	-0.0676354	-0.0912439	-0.543732	0.0914996	0.0267079	0.212163	-0.566432	-0.0349737	1.52607	2.11285	0.0696658	-0.380703	-0.00511998	1.28107	1.35452
2.38	-0.234011	-0.0983103	-0.0587804	-0.373757	0.637121	-0.579189	1.44088	-0.0956587	-0.073998	1.69478	0.448873	-0.317327	-0.0912647	1.54176	-0.204226	0.150797	1.76373	0.513944	-0.0559246	-0.0912439	-0.553257	0.0912786	0.0342181	0.213099	-0.578916	-0.00607074	1.47623	2.11752	0.0579893	-0.375549	-0.00616721	1.22908	1.35506
2.39	-0.251486	-0.0987251	-0.0663085	-0.372434	0.626933	-0.578946	1.47725	-0.0953984	-0.0730356	1.72237	0.462533	-0.307624	-0.0912647	1.58059	-0.210796	0.157365	1.79304	0.5272	-0.0455014	-0.0912438	-0.562234	0.0894801	0.0408238	0.210574	-0.58972	0.0209248	1.42594	2.12063	0.0427059	-0.37099	-0.00730516	1.17719	1.35518
